<mxfile host="65bd71144e">
    <diagram id="od4vKRxtiJ8oWAWhGF9b" name="Page-1">
        <mxGraphModel dx="997" dy="579" grid="1" gridSize="10" guides="1" tooltips="1" connect="1" arrows="1" fold="1" page="1" pageScale="1" pageWidth="827" pageHeight="1169" math="0" shadow="0">
            <root>
                <mxCell id="0"/>
                <mxCell id="1" parent="0"/>
                <mxCell id="9" value="loop through team notes&lt;br&gt;" style="rounded=1;whiteSpace=wrap;html=1;" parent="1" vertex="1">
                    <mxGeometry x="354" y="90" width="140" height="30" as="geometry"/>
                </mxCell>
                <mxCell id="10" value="if last update within a day from now" style="rounded=1;whiteSpace=wrap;html=1;" parent="1" vertex="1">
                    <mxGeometry x="319" y="150" width="210" height="30" as="geometry"/>
                </mxCell>
                <mxCell id="11" value="fetch another api to get note details&amp;nbsp;" style="rounded=1;whiteSpace=wrap;html=1;" parent="1" vertex="1">
                    <mxGeometry x="229" y="220" width="209" height="30" as="geometry"/>
                </mxCell>
                <mxCell id="12" value="pass" style="rounded=1;whiteSpace=wrap;html=1;" parent="1" vertex="1">
                    <mxGeometry x="470" y="220" width="90" height="30" as="geometry"/>
                </mxCell>
                <mxCell id="13" value="process and prepare data to be inserted into db&amp;nbsp;" style="rounded=1;whiteSpace=wrap;html=1;" parent="1" vertex="1">
                    <mxGeometry x="198.5" y="285" width="270" height="30" as="geometry"/>
                </mxCell>
                <mxCell id="14" value="upsert post" style="rounded=1;whiteSpace=wrap;html=1;" parent="1" vertex="1">
                    <mxGeometry x="298.5" y="350" width="70" height="40" as="geometry"/>
                </mxCell>
                <mxCell id="16" value="upsert topics" style="rounded=1;whiteSpace=wrap;html=1;" parent="1" vertex="1">
                    <mxGeometry x="294" y="420" width="76" height="40" as="geometry"/>
                </mxCell>
                <mxCell id="17" value="upsert tags" style="rounded=1;whiteSpace=wrap;html=1;" parent="1" vertex="1">
                    <mxGeometry x="290.5" y="500" width="83" height="40" as="geometry"/>
                </mxCell>
                <mxCell id="18" value="update post_topics, post_tags and author_posts table" style="rounded=1;whiteSpace=wrap;html=1;" parent="1" vertex="1">
                    <mxGeometry x="230.5" y="585" width="203" height="60" as="geometry"/>
                </mxCell>
                <mxCell id="19" value="&lt;b&gt;Update bridging table algo&lt;br&gt;&lt;/b&gt;&lt;br&gt;old topics:&amp;nbsp; [topic1, topic2, topic3]&lt;br&gt;new topics: [topic1,topic4,topic5]&lt;br&gt;&lt;br&gt;loop through old&lt;br&gt;new.contains(old[i]) != true&lt;br&gt;append to deleteSlice, then batch Delete&lt;br&gt;&lt;br&gt;loop through new&lt;br&gt;old.contains(new[i]) != true&lt;br&gt;append to createSlice, then batch Create" style="whiteSpace=wrap;html=1;aspect=fixed;dashed=1;rounded=0;glass=0;" parent="1" vertex="1">
                    <mxGeometry x="730" y="560" width="210" height="210" as="geometry"/>
                </mxCell>
                <mxCell id="20" value="先不考慮publish date，在撈資料時再做處理。" style="text;html=1;strokeColor=none;fillColor=none;align=center;verticalAlign=middle;whiteSpace=wrap;rounded=0;glass=0;dashed=1;" parent="1" vertex="1">
                    <mxGeometry x="160.5" y="125" width="130" height="80" as="geometry"/>
                </mxCell>
                <mxCell id="21" value="fetch api to get list of team notes" style="rounded=1;whiteSpace=wrap;html=1;glass=0;" parent="1" vertex="1">
                    <mxGeometry x="364" y="20" width="120" height="40" as="geometry"/>
                </mxCell>
                <mxCell id="27" value="" style="endArrow=classic;html=1;exitX=0.5;exitY=1;exitDx=0;exitDy=0;" parent="1" source="21" edge="1">
                    <mxGeometry width="50" height="50" relative="1" as="geometry">
                        <mxPoint x="390" y="390" as="sourcePoint"/>
                        <mxPoint x="424" y="90" as="targetPoint"/>
                    </mxGeometry>
                </mxCell>
                <mxCell id="28" value="" style="endArrow=classic;html=1;exitX=0.5;exitY=1;exitDx=0;exitDy=0;entryX=0.5;entryY=0;entryDx=0;entryDy=0;" parent="1" source="9" target="10" edge="1">
                    <mxGeometry width="50" height="50" relative="1" as="geometry">
                        <mxPoint x="390" y="290" as="sourcePoint"/>
                        <mxPoint x="424" y="120" as="targetPoint"/>
                    </mxGeometry>
                </mxCell>
                <mxCell id="30" value="" style="endArrow=classic;html=1;exitX=0.25;exitY=1;exitDx=0;exitDy=0;entryX=0.5;entryY=0;entryDx=0;entryDy=0;" parent="1" source="10" target="11" edge="1">
                    <mxGeometry width="50" height="50" relative="1" as="geometry">
                        <mxPoint x="390" y="290" as="sourcePoint"/>
                        <mxPoint x="440" y="240" as="targetPoint"/>
                    </mxGeometry>
                </mxCell>
                <mxCell id="31" value="" style="endArrow=classic;html=1;exitX=0.75;exitY=1;exitDx=0;exitDy=0;entryX=0.5;entryY=0;entryDx=0;entryDy=0;" parent="1" source="10" target="12" edge="1">
                    <mxGeometry width="50" height="50" relative="1" as="geometry">
                        <mxPoint x="390" y="290" as="sourcePoint"/>
                        <mxPoint x="550" y="220" as="targetPoint"/>
                    </mxGeometry>
                </mxCell>
                <mxCell id="32" value="YES" style="text;html=1;strokeColor=none;fillColor=none;align=center;verticalAlign=middle;whiteSpace=wrap;rounded=0;glass=0;" parent="1" vertex="1">
                    <mxGeometry x="350" y="190" width="60" height="30" as="geometry"/>
                </mxCell>
                <mxCell id="33" value="NO" style="text;html=1;strokeColor=none;fillColor=none;align=center;verticalAlign=middle;whiteSpace=wrap;rounded=0;glass=0;" parent="1" vertex="1">
                    <mxGeometry x="500" y="190" width="60" height="30" as="geometry"/>
                </mxCell>
                <mxCell id="34" value="" style="endArrow=classic;html=1;exitX=0.5;exitY=1;exitDx=0;exitDy=0;entryX=0.5;entryY=0;entryDx=0;entryDy=0;" parent="1" source="11" target="13" edge="1">
                    <mxGeometry width="50" height="50" relative="1" as="geometry">
                        <mxPoint x="390" y="290" as="sourcePoint"/>
                        <mxPoint x="440" y="240" as="targetPoint"/>
                    </mxGeometry>
                </mxCell>
                <mxCell id="35" value="" style="endArrow=classic;html=1;exitX=0.5;exitY=1;exitDx=0;exitDy=0;" parent="1" source="13" target="14" edge="1">
                    <mxGeometry width="50" height="50" relative="1" as="geometry">
                        <mxPoint x="390" y="290" as="sourcePoint"/>
                        <mxPoint x="440" y="240" as="targetPoint"/>
                    </mxGeometry>
                </mxCell>
                <mxCell id="37" value="" style="endArrow=classic;html=1;exitX=0.5;exitY=1;exitDx=0;exitDy=0;" parent="1" source="14" target="16" edge="1">
                    <mxGeometry width="50" height="50" relative="1" as="geometry">
                        <mxPoint x="390" y="290" as="sourcePoint"/>
                        <mxPoint x="440" y="240" as="targetPoint"/>
                    </mxGeometry>
                </mxCell>
                <mxCell id="38" value="" style="endArrow=classic;html=1;exitX=0.5;exitY=1;exitDx=0;exitDy=0;entryX=0.5;entryY=0;entryDx=0;entryDy=0;" parent="1" source="16" target="17" edge="1">
                    <mxGeometry width="50" height="50" relative="1" as="geometry">
                        <mxPoint x="390" y="290" as="sourcePoint"/>
                        <mxPoint x="440" y="240" as="targetPoint"/>
                    </mxGeometry>
                </mxCell>
                <mxCell id="39" value="" style="endArrow=classic;html=1;exitX=0.5;exitY=1;exitDx=0;exitDy=0;entryX=0.5;entryY=0;entryDx=0;entryDy=0;" parent="1" source="17" target="18" edge="1">
                    <mxGeometry width="50" height="50" relative="1" as="geometry">
                        <mxPoint x="390" y="290" as="sourcePoint"/>
                        <mxPoint x="440" y="240" as="targetPoint"/>
                    </mxGeometry>
                </mxCell>
                <mxCell id="40" value="Upsert(post *schema.Post)&amp;nbsp; error" style="rounded=0;whiteSpace=wrap;html=1;glass=0;dashed=1;" parent="1" vertex="1">
                    <mxGeometry x="422" y="355" width="216" height="30" as="geometry"/>
                </mxCell>
                <mxCell id="41" value="Upsert(topic *schema.Topic)&amp;nbsp; (string, error)" style="rounded=0;whiteSpace=wrap;html=1;glass=0;dashed=1;" parent="1" vertex="1">
                    <mxGeometry x="401" y="425" width="258" height="30" as="geometry"/>
                </mxCell>
                <mxCell id="42" value="Upsert(tag *schema.Tag)&amp;nbsp; (string, error)" style="rounded=0;whiteSpace=wrap;html=1;glass=0;dashed=1;" parent="1" vertex="1">
                    <mxGeometry x="401" y="505" width="258" height="30" as="geometry"/>
                </mxCell>
                <mxCell id="43" value="BatchDelete(topicID string, postID string) error" style="rounded=1;whiteSpace=wrap;html=1;glass=0;dashed=1;" parent="1" vertex="1">
                    <mxGeometry x="468.5" y="620" width="226" height="35" as="geometry"/>
                </mxCell>
                <mxCell id="44" value="BatchCreate(topicID string, postID string) error" style="rounded=1;whiteSpace=wrap;html=1;glass=0;dashed=1;" parent="1" vertex="1">
                    <mxGeometry x="468.5" y="675" width="226" height="35" as="geometry"/>
                </mxCell>
                <mxCell id="45" value="&lt;p style=&quot;background-color: rgb(30 , 30 , 30) ; line-height: 18px ; color: rgb(212 , 212 , 212) ; font-family: &amp;#34;menlo&amp;#34; , &amp;#34;monaco&amp;#34; , &amp;#34;courier new&amp;#34; , monospace&quot;&gt;&lt;span style=&quot;color: rgb(220 , 220 , 170)&quot;&gt;GetIDsByPost&lt;/span&gt;(postID &lt;span style=&quot;color: rgb(78 , 201 , 176)&quot;&gt;string&lt;/span&gt;) ([]&lt;span style=&quot;color: rgb(78 , 201 , 176)&quot;&gt;string&lt;/span&gt;, &lt;span style=&quot;color: rgb(78 , 201 , 176)&quot;&gt;error&lt;/span&gt;)&lt;/p&gt;" style="rounded=1;whiteSpace=wrap;html=1;glass=0;dashed=1;" parent="1" vertex="1">
                    <mxGeometry x="470" y="567" width="226" height="35" as="geometry"/>
                </mxCell>
                <mxCell id="46" value="* This method is to get slice of ids of existing records" style="text;html=1;resizable=0;autosize=1;align=center;verticalAlign=middle;points=[];fillColor=none;strokeColor=none;rounded=0;fontFamily=Helvetica;" vertex="1" parent="1">
                    <mxGeometry x="440" y="547" width="290" height="20" as="geometry"/>
                </mxCell>
            </root>
        </mxGraphModel>
    </diagram>
</mxfile>